<?xml version="1.0" encoding="UTF-8"?>
<svg width="20px" height="20px" viewBox="0 0 20 20" version="1.1" xmlns="http://www.w3.org/2000/svg" xmlns:xlink="http://www.w3.org/1999/xlink">
    <!-- Generator: Sketch 52.6 (67491) - http://www.bohemiancoding.com/sketch -->
    <title>icon/shop/subscribe</title>
    <desc>Created with Sketch.</desc>
    <defs>
        <path d="M18.7374326,6.93922951 C19.2114788,6.9493156 19.490107,7.43218713 19.2543447,7.84067375 C18.8307289,8.57191523 18.4033309,9.30189595 17.9734113,10.0280944 C17.7300844,10.4378418 17.1627419,10.436581 16.919415,10.0255729 C16.4869739,9.29937443 16.0595758,8.56939371 15.6372209,7.83815222 C15.4014585,7.4296656 15.6851298,6.94805483 16.159176,6.93922951 C16.3268572,6.93670798 16.4945385,6.93796875 16.6609589,6.93922951 C15.7166488,3.63729599 12.695865,1.2015054 9.09639188,1.2015054 C4.74298354,1.2015054 1.20276616,4.74298354 1.20276616,9.09513112 C1.20276616,13.4472787 4.74298354,16.9874961 9.09639188,16.9874961 C12.0516161,16.9874961 14.633655,15.3535496 15.9851909,12.9417135 C15.9851909,12.9417135 16.3747661,12.3895001 16.8841137,12.7677284 C17.3052079,13.081658 16.9307618,13.709517 16.9307618,13.709517 C15.3472458,16.3898953 12.4273229,18.1902622 9.09639188,18.1902622 C4.08108392,18.1902622 2.29150032e-13,14.1104391 2.29150032e-13,9.09513112 C2.29150032e-13,4.0785624 4.08108392,-1.77635684e-15 9.09639188,-1.77635684e-15 C13.3678507,-1.77635684e-15 16.9597593,2.961528 17.9305454,6.93922951 L18.1322672,6.93922951 C18.333989,6.93544722 18.5357108,6.93544722 18.7374326,6.93922951 Z M9.59628368,9.16283399 C9.62275967,9.08970984 9.64293185,9.01406417 9.64293185,8.93085393 C9.64293185,8.55766863 9.33782764,8.25256442 8.96338157,8.25256442 C8.5889355,8.25256442 8.2838313,8.55766863 8.2838313,8.93085393 C8.2838313,9.3053 8.5889355,9.61040421 8.96338157,9.61040421 C9.22309837,9.61040421 9.44121006,9.45911287 9.55593932,9.24478347 C9.56602541,9.22461129 9.56728618,9.20191759 9.57863303,9.18174541 C9.58367607,9.17418084 9.59124064,9.17039856 9.59628368,9.16283399 Z M8.96716386,2.0218827 C9.3163947,2.02440422 9.59628368,2.30807548 9.59376216,2.65730633 L9.56098237,7.42802661 C10.1611047,7.66631048 10.5885027,8.24752138 10.5885027,8.93085393 C10.5885027,8.97119829 10.5683305,9.00523884 10.565809,9.04306168 L13.5676814,10.8711654 C13.865221,11.052715 13.9597781,11.4410294 13.7782285,11.7373083 C13.6597169,11.9327263 13.4529521,12.039891 13.2398835,12.039891 C13.1276757,12.039891 13.0142072,12.0108935 12.9120856,11.9478554 L9.98585889,10.1663999 C9.70344838,10.3983799 9.35673906,10.5559751 8.96338157,10.5559751 C8.06824114,10.5559751 7.33826042,9.82725513 7.33826042,8.93085393 C7.33826042,8.27399736 7.73540019,7.71295864 8.29896043,7.45702412 L8.33300099,2.64722024 C8.33552251,2.30177168 8.61793301,2.0218827 8.96338157,2.0218827 L8.96716386,2.0218827 Z" id="path-1"></path>
    </defs>
    <g id="icon/shop/subscribe" stroke="none" stroke-width="1" fill="none" fill-rule="evenodd">
        <g id="Group-6" transform="translate(0.000000, 1.000000)">
            <g id="colour/delivery_green">
                <mask id="mask-2" fill="#FFFFFF">
                    <use xlink:href="#path-1"></use>
                </mask>
                <use id="Mask" fill="#FFFFFF" xlink:href="#path-1"></use>
                <g mask="url(#mask-2)" fill="#FFF" id="Rectangle-2">
                    <g transform="translate(0.000000, -1.000000)">
                        <rect x="0" y="0" width="20" height="20"></rect>
                    </g>
                </g>
            </g>
        </g>
    </g>
</svg>
