<svg id="Layer_1" data-name="Layer 1" xmlns="http://www.w3.org/2000/svg" viewBox="0 0 36.3 36.3"><defs><style>.cls-1{fill:#575858;}</style></defs><title>filter-sort-results</title><path class="cls-1" d="M210.3,296.2H174V259.9h36.3v36.3Zm-35-1.3H209V261.2H175.3v33.7Z" transform="translate(-174 -259.9)"/><path class="cls-1" d="M182.9,285.4h19.2a1,1,0,0,1,0,2H182.9A1,1,0,0,1,182.9,285.4Z" transform="translate(-174 -259.9)"/><path class="cls-1" d="M191.9,277.4h10.2a1,1,0,0,1,0,2H191.9A1,1,0,0,1,191.9,277.4Z" transform="translate(-174 -259.9)"/><path class="cls-1" d="M196.9,269.4h5.2a1,1,0,0,1,0,2h-5.2A1,1,0,0,1,196.9,269.4Z" transform="translate(-174 -259.9)"/><path class="cls-1" d="M192.8,270a0.5,0.5,0,0,1-.1.7l-4.6,4.6v7a0.6,0.6,0,0,1-.4.6h-0.2l-0.4-.2-2.4-2.4a0.6,0.6,0,0,1-.2-0.4v-4.6l-4.6-4.6a0.5,0.5,0,0,1-.1-0.7,0.6,0.6,0,0,1,.6-0.4h12A0.6,0.6,0,0,1,192.8,270Z" transform="translate(-174 -259.9)"/></svg>