<svg id="Layer_3" data-name="Layer 3" xmlns="http://www.w3.org/2000/svg" viewBox="0 0 280 280"><defs><style>.cls-1{fill:#fcac00;}.cls-2{fill:#fff;}</style></defs><title>delivery</title><circle class="cls-1" cx="140" cy="140" r="135"/><path class="cls-2" d="M174.54,195.42h0.3a3.3,3.3,0,0,0,3.28-3l3.6-39.29a3.3,3.3,0,0,0-6.57-.6l-3.6,39.29a3.3,3.3,0,0,0,3,3.6h0Z"/><path class="cls-2" d="M157.24,195.42h0.16a3.31,3.31,0,0,0,3.29-3.15l1.8-39.29a3.3,3.3,0,0,0-3.14-3.45h0a3.34,3.34,0,0,0-3.45,3.15L154.09,192a3.3,3.3,0,0,0,3.14,3.45h0Z"/><path class="cls-2" d="M139.94,195.43a3.3,3.3,0,0,0,3.3-3.3V152.82a3.3,3.3,0,1,0-6.6,0v39.29a3.3,3.3,0,0,0,3.28,3.32h0Z"/><path class="cls-2" d="M122.48,195.43h0.16a3.3,3.3,0,0,0,3.15-3.44h0L124,152.69a3.3,3.3,0,0,0-6.6.3l1.8,39.29A3.31,3.31,0,0,0,122.48,195.43Z"/><path class="cls-2" d="M105.07,195.43h0.3a3.3,3.3,0,0,0,3-3.57h0l-3.6-39.29a3.3,3.3,0,0,0-6.57.6l3.6,39.29A3.3,3.3,0,0,0,105.07,195.43Z"/><path class="cls-2" d="M201.88,115.72h-25.6L155.64,72.19a3.32,3.32,0,1,0-6,2.83h0l19.3,40.69H110.86L130.16,75a3.32,3.32,0,1,0-6-2.83h0l-20.64,43.52H77.92a8.07,8.07,0,0,0-8.06,8.07V134.6a8.07,8.07,0,0,0,8.06,8.07h1.81l3.33,51c0.6,9.16,7.6,16.07,16.28,16.07h81c8.68,0,15.68-6.91,16.28-16.07l3.34-51h1.81a8.07,8.07,0,0,0,8.06-8.07V123.82A8.07,8.07,0,0,0,201.88,115.72Zm-11.74,77.47c-0.37,5.64-4.53,9.9-9.69,9.9h-81c-5.16,0-9.32-4.26-9.69-9.9l-3.31-50.54h107Zm13.2-58.6a1.48,1.48,0,0,1-1.46,1.47H78a1.49,1.49,0,0,1-1.47-1.47V123.82A1.49,1.49,0,0,1,78,122.36h22.47l-2,4.19a3.32,3.32,0,1,0,6,2.83h0l3.33-7h64.27l3.33,7a3.32,3.32,0,1,0,6-2.83h0l-2-4.19h22.47a1.48,1.48,0,0,1,1.46,1.47v10.76Z"/></svg>