<svg id="Layer_3" data-name="Layer 3" xmlns="http://www.w3.org/2000/svg" viewBox="0 0 32 30.4"><defs><style>.cls-1{fill:#a70240;}</style></defs><title>icon-online-help</title><path class="cls-1" d="M950.8,651.4h-0.7a1,1,0,0,1-.9-0.7,4.2,4.2,0,0,0-8.1,0,1,1,0,0,1-.9.7H934a1,1,0,0,1-.9-0.7,4.2,4.2,0,0,0-8.1,0,1,1,0,0,1-.9.7h-0.7a2.3,2.3,0,0,1-2.3-2.3v-7.4a1,1,0,0,1,1.9,0,0.3,0.3,0,0,0,.3.3h16.8a0.3,0.3,0,0,0,.3-0.3v-4.5a1,1,0,0,1,1-1h4.7a4.7,4.7,0,0,1,3.2,1.7l2.4,3.4a7.2,7.2,0,0,1,1.3,4.1v3.8A2.3,2.3,0,0,1,950.8,651.4Zm-0.1-1.9h0.1a0.3,0.3,0,0,0,.3-0.3v-3.8a5.2,5.2,0,0,0-1-3l-2.4-3.4a3,3,0,0,0-1.6-.9h-3.8v3.6a2.3,2.3,0,0,1-2.3,2.3H923v5.2a0.3,0.3,0,0,0,.3.3h0.1a6.1,6.1,0,0,1,11.3,0h4.8A6.1,6.1,0,0,1,950.8,649.5Z" transform="translate(-921.1 -626)"/><path class="cls-1" d="M945.1,656.5a3.4,3.4,0,1,1,3.4-3.4A3.4,3.4,0,0,1,945.1,656.5Zm0-4.8a1.4,1.4,0,1,0,1.5,1.4A1.5,1.5,0,0,0,945.1,651.6Z" transform="translate(-921.1 -626)"/><path class="cls-1" d="M929.1,656.5a3.4,3.4,0,1,1,3.3-3.4A3.3,3.3,0,0,1,929.1,656.5Zm0-4.8a1.5,1.5,0,1,0,1.3,1.4A1.4,1.4,0,0,0,929.1,651.6Z" transform="translate(-921.1 -626)"/><path class="cls-1" d="M940.2,643.9H923.4a2.3,2.3,0,0,1-2.3-2.3V628.3a2.3,2.3,0,0,1,2.3-2.3h16.8a2.3,2.3,0,0,1,2.3,2.3v13.3A2.3,2.3,0,0,1,940.2,643.9Zm-16.8-15.9a0.3,0.3,0,0,0-.3.3v13.3a0.3,0.3,0,0,0,.3.3h16.8a0.3,0.3,0,0,0,.3-0.3V628.3a0.3,0.3,0,0,0-.3-0.3H923.4Z" transform="translate(-921.1 -626)"/></svg>