<svg id="Layer_3" data-name="Layer 3" xmlns="http://www.w3.org/2000/svg" viewBox="0 0 280 280"><defs><style>.cls-1{fill:#52ae33;}.cls-2{fill:#fff;}</style></defs><title>delivery</title><circle class="cls-1" cx="140" cy="140" r="135"/><path class="cls-2" d="M203,185.82h-3.38a3,3,0,0,1-2.88-2.16,20.85,20.85,0,0,0-39.78,0,3,3,0,0,1-2.88,2.16H125.8a3,3,0,0,1-2.88-2.16,20.85,20.85,0,0,0-39.79,0,3,3,0,0,1-2.88,2.16H76.87a8.89,8.89,0,0,1-9-8.8V143.85a3,3,0,1,1,6,0,2.92,2.92,0,0,0,3,2.8h77.32a2.92,2.92,0,0,0,3-2.8V123.61a3,3,0,0,1,3-3l21.64-.29h0.11c4.44,0,10.81,3.81,13.18,7l11.1,15a30.45,30.45,0,0,1,5.85,17.7v17a8.89,8.89,0,0,1-8.94,8.84H203Zm-1.24-6H203a2.92,2.92,0,0,0,3-2.8v-17a24.32,24.32,0,0,0-4.67-14.14l-11.1-15c-1.44-2-6.25-4.58-8.34-4.58h0l-18.69.25v17.27a8.89,8.89,0,0,1-9,8.8H76.85a9,9,0,0,1-3-.49V177a2.92,2.92,0,0,0,3,2.8h1.22a26.9,26.9,0,0,1,49.84,0h24A26.89,26.89,0,0,1,201.78,179.82Z"/><path class="cls-2" d="M176.86,205.23a14.92,14.92,0,1,1,15.21-14.92A15.09,15.09,0,0,1,176.86,205.23Zm0-23.83a8.92,8.92,0,1,0,9.21,8.92,9.08,9.08,0,0,0-9.21-8.93h0Z"/><path class="cls-2" d="M103,205.23a14.92,14.92,0,1,1,15.22-14.92A15.09,15.09,0,0,1,103,205.23Zm0-23.83a8.92,8.92,0,1,0,9.22,8.92,9.08,9.08,0,0,0-9.22-8.93h0Z"/><path class="cls-2" d="M154.17,152H76.85a8.89,8.89,0,0,1-9-8.8V83.54a8.89,8.89,0,0,1,9-8.8h77.32a8.89,8.89,0,0,1,9,8.78v59.67a8.89,8.89,0,0,1-9,8.8h0ZM76.85,80.75a2.92,2.92,0,0,0-3,2.8v59.65a2.92,2.92,0,0,0,3,2.8h77.32a2.92,2.92,0,0,0,3-2.8V83.54a2.92,2.92,0,0,0-3-2.8H76.85Z"/></svg>