<svg id="Layer_3" data-name="Layer 3" xmlns="http://www.w3.org/2000/svg" viewBox="0 0 280 847.8"><defs><style>.cls-1{fill:#fff;}</style></defs><title>icons-deliverypage</title><path class="cls-1" d="M4457.87,1002.16a3,3,0,0,1-2.6-1.5L4414,929l-0.06-.1a49.66,49.66,0,1,1,87.93,0l-0.06.1-41.31,71.61A3,3,0,0,1,4457.87,1002.16Zm-38.68-76.06,38.68,67.05,38.68-67.05a43.13,43.13,0,0,0,5-20.25,43.66,43.66,0,0,0-87.31,0A43.13,43.13,0,0,0,4419.19,926.1Zm38.68,6.08a26.33,26.33,0,1,1,26.33-26.33A26.36,26.36,0,0,1,4457.87,932.18Zm0-46.66a20.33,20.33,0,1,0,20.33,20.33A20.35,20.35,0,0,0,4457.87,885.52Z" transform="translate(-4317.87 -221.37)"/><path class="cls-1" d="M4520.95,407.2h-3.38a3,3,0,0,1-2.88-2.16,20.85,20.85,0,0,0-39.78,0,3,3,0,0,1-2.88,2.16h-28.3a3,3,0,0,1-2.88-2.16,20.85,20.85,0,0,0-39.79,0,3,3,0,0,1-2.88,2.16h-3.38a8.89,8.89,0,0,1-8.95-8.8V365.23a3,3,0,0,1,6,0,2.92,2.92,0,0,0,2.95,2.8h77.32a2.92,2.92,0,0,0,3-2.8V345a3,3,0,0,1,3-3l21.64-.29h0.11c4.44,0,10.81,3.81,13.18,7l11.1,15a30.45,30.45,0,0,1,5.85,17.7v16.95A8.89,8.89,0,0,1,4520.95,407.2Zm-1.24-6h1.24a2.92,2.92,0,0,0,2.95-2.8V381.45a24.32,24.32,0,0,0-4.67-14.14l-11.1-15c-1.44-1.95-6.25-4.58-8.34-4.58h0l-18.69.25v17.27a8.89,8.89,0,0,1-9,8.8h-77.32a9,9,0,0,1-2.95-.49v24.86a2.92,2.92,0,0,0,2.95,2.8H4396a26.9,26.9,0,0,1,49.84,0h24A26.89,26.89,0,0,1,4519.71,401.2Z" transform="translate(-4317.87 -221.37)"/><path class="cls-1" d="M4494.79,426.62A14.92,14.92,0,1,1,4510,411.7,15.09,15.09,0,0,1,4494.79,426.62Zm0-23.83a8.92,8.92,0,1,0,9.21,8.92A9.08,9.08,0,0,0,4494.79,402.78Z" transform="translate(-4317.87 -221.37)"/><path class="cls-1" d="M4420.95,426.62a14.92,14.92,0,1,1,15.22-14.92A15.09,15.09,0,0,1,4420.95,426.62Zm0-23.83a8.92,8.92,0,1,0,9.22,8.92A9.08,9.08,0,0,0,4420.95,402.78Z" transform="translate(-4317.87 -221.37)"/><path class="cls-1" d="M4472.1,373.38h-77.32a8.89,8.89,0,0,1-8.95-8.8V304.93a8.89,8.89,0,0,1,8.95-8.8h77.32a8.89,8.89,0,0,1,9,8.8v59.65A8.89,8.89,0,0,1,4472.1,373.38Zm-77.32-71.25a2.92,2.92,0,0,0-2.95,2.8v59.65a2.92,2.92,0,0,0,2.95,2.8h77.32a2.92,2.92,0,0,0,3-2.8V304.93a2.92,2.92,0,0,0-3-2.8h-77.32Z" transform="translate(-4317.87 -221.37)"/><path class="cls-1" d="M4457.87,501.37h-0.24v-6h0.24a135,135,0,0,0,27.95-2.92l1.24,5.87A140.92,140.92,0,0,1,4457.87,501.37Zm-14.53-.75a139.64,139.64,0,0,1-29-6.14l1.86-5.7a133.54,133.54,0,0,0,27.71,5.88Zm57.55-6-1.84-5.71a133.52,133.52,0,0,0,25.89-11.52l3,5.19A139.48,139.48,0,0,1,4500.89,494.64ZM4401,489.35a140.08,140.08,0,0,1-25.61-14.83l3.54-4.85a134.07,134.07,0,0,0,24.51,14.19Zm138.92-14.55-3.52-4.86a135,135,0,0,0,21.07-19l4.46,4A141.08,141.08,0,0,1,4539.94,474.8Zm-175.65-9.29a141,141,0,0,1-19.81-22l4.86-3.52a135,135,0,0,0,19,21.06ZM4571,443.9l-4.84-3.54a134.23,134.23,0,0,0,14.21-24.51l5.48,2.44A140.18,140.18,0,0,1,4571,443.9Zm-234.29-12.38a139.59,139.59,0,0,1-12.05-27l5.71-1.85a133.59,133.59,0,0,0,11.53,25.88ZM4591,404.94l-5.7-1.87a133.51,133.51,0,0,0,5.89-27.71l6,0.62A139.68,139.68,0,0,1,4591,404.94Zm-270-14.3a140.92,140.92,0,0,1-3.07-29.27v-0.16h6v0.22a134.82,134.82,0,0,0,2.94,28Zm276.93-28.95h-6v-0.32a134.9,134.9,0,0,0-3-28.18l5.87-1.26a140.93,140.93,0,0,1,3.1,29.43v0.32Zm-273.29-14.16-6-.61a139.68,139.68,0,0,1,6.12-29l5.71,1.86A133.59,133.59,0,0,0,4324.57,347.53ZM4585.35,320a133.56,133.56,0,0,0-11.57-25.87l5.19-3a139.59,139.59,0,0,1,12.08,27Zm-250-12.93-5.48-2.44A140.08,140.08,0,0,1,4344.67,279l4.85,3.54A134,134,0,0,0,4335.34,307Zm231-24.41a135,135,0,0,0-19-21l4-4.47a141,141,0,0,1,19.83,22Zm-208.16-10.76-4.46-4a141,141,0,0,1,22-19.82l3.53,4.85A134.91,134.91,0,0,0,4358.14,271.87ZM4536.66,253a134.17,134.17,0,0,0-24.53-14.16l2.43-5.48a140.14,140.14,0,0,1,25.63,14.8Zm-146-7.56-3-5.19a139.6,139.6,0,0,1,27-12.07l1.85,5.71A133.57,133.57,0,0,0,4390.67,245.42Zm108.68-11.5a133.61,133.61,0,0,0-27.72-5.84l0.61-6a139.63,139.63,0,0,1,29,6.11Zm-69.58-3.59-1.25-5.87a141,141,0,0,1,29.35-3.08l0.08,6h-0.13A134.86,134.86,0,0,0,4429.77,230.32Z" transform="translate(-4317.87 -221.37)"/><path class="cls-1" d="M4492.47,700.59l0.3,0a3.3,3.3,0,0,0,3.28-3l3.6-39.29a3.3,3.3,0,0,0-6.57-.6l-3.6,39.29A3.3,3.3,0,0,0,4492.47,700.59Z" transform="translate(-4317.87 -221.37)"/><path class="cls-1" d="M4475.17,700.6h0.16a3.31,3.31,0,0,0,3.29-3.15l1.8-39.29a3.3,3.3,0,0,0-3.15-3.45,3.34,3.34,0,0,0-3.45,3.15l-1.8,39.29A3.3,3.3,0,0,0,4475.17,700.6Z" transform="translate(-4317.87 -221.37)"/><path class="cls-1" d="M4457.87,700.61a3.3,3.3,0,0,0,3.3-3.3V658a3.3,3.3,0,1,0-6.6,0v39.29A3.3,3.3,0,0,0,4457.87,700.61Z" transform="translate(-4317.87 -221.37)"/><path class="cls-1" d="M4440.41,700.61h0.16a3.3,3.3,0,0,0,3.15-3.45l-1.8-39.29a3.3,3.3,0,0,0-6.6.3l1.8,39.29A3.31,3.31,0,0,0,4440.41,700.61Z" transform="translate(-4317.87 -221.37)"/><path class="cls-1" d="M4423,700.61l0.3,0a3.3,3.3,0,0,0,3-3.58l-3.6-39.29a3.3,3.3,0,0,0-6.57.6l3.6,39.29A3.3,3.3,0,0,0,4423,700.61Z" transform="translate(-4317.87 -221.37)"/><path class="cls-1" d="M4519.81,620.89h-25.6l-20.64-43.52a3.3,3.3,0,1,0-6,2.83l19.3,40.69h-58.08l19.3-40.69a3.3,3.3,0,1,0-6-2.83l-20.64,43.52h-25.6a8.07,8.07,0,0,0-8.06,8.07v10.81a8.07,8.07,0,0,0,8.06,8.07h1.81l3.33,51c0.6,9.16,7.6,16.07,16.28,16.07h81c8.68,0,15.68-6.91,16.28-16.07l3.34-51h1.81a8.07,8.07,0,0,0,8.06-8.07V629A8.07,8.07,0,0,0,4519.81,620.89Zm-11.74,77.47c-0.37,5.64-4.53,9.9-9.69,9.9h-81c-5.16,0-9.32-4.26-9.69-9.9l-3.31-50.54h107Zm13.2-58.6a1.48,1.48,0,0,1-1.46,1.47H4395.93a1.49,1.49,0,0,1-1.47-1.47V629a1.49,1.49,0,0,1,1.47-1.47h22.47l-2,4.19a3.3,3.3,0,1,0,6,2.83l3.33-7H4490l3.33,7a3.3,3.3,0,0,0,6-2.83l-2-4.19h22.47a1.48,1.48,0,0,1,1.46,1.47v10.81Z" transform="translate(-4317.87 -221.37)"/><path class="cls-1" d="M4457.87,785.18h-0.24v-6h0.26a134.9,134.9,0,0,0,27.93-2.92l1.24,5.87A140.92,140.92,0,0,1,4457.87,785.18Zm-14.53-.75a139.62,139.62,0,0,1-29-6.14l1.86-5.7a133.56,133.56,0,0,0,27.71,5.88Zm57.55-6-1.84-5.71a133.52,133.52,0,0,0,25.89-11.52l3,5.19A139.48,139.48,0,0,1,4500.89,778.44ZM4401,773.15a140.08,140.08,0,0,1-25.61-14.83l3.54-4.85a134.07,134.07,0,0,0,24.51,14.19Zm138.92-14.55-3.52-4.86a135,135,0,0,0,21.07-19l4.46,4A141.08,141.08,0,0,1,4539.94,758.61Zm-175.65-9.29a141,141,0,0,1-19.81-22l4.86-3.52a135,135,0,0,0,19,21.06ZM4571,727.7l-4.84-3.54a134.23,134.23,0,0,0,14.21-24.51l5.48,2.44A140.18,140.18,0,0,1,4571,727.7Zm-234.29-12.38a139.46,139.46,0,0,1-12.05-27l5.71-1.84a133.45,133.45,0,0,0,11.53,25.88ZM4591,688.74l-5.7-1.87a133.51,133.51,0,0,0,5.89-27.71l6,0.62A139.68,139.68,0,0,1,4591,688.74Zm-270-14.3a140.92,140.92,0,0,1-3.07-29.27V645h6v0.22a134.82,134.82,0,0,0,2.94,28Zm276.93-28.95h-6v-0.32a134.9,134.9,0,0,0-3-28.18l5.87-1.26a140.93,140.93,0,0,1,3.1,29.43v0.32Zm-273.29-14.16-6-.61a139.68,139.68,0,0,1,6.12-29l5.71,1.86A133.59,133.59,0,0,0,4324.57,631.34Zm260.78-27.57a133.56,133.56,0,0,0-11.57-25.87l5.19-3a139.59,139.59,0,0,1,12.08,27Zm-250-12.93-5.48-2.44a140.08,140.08,0,0,1,14.81-25.62l4.85,3.54A134,134,0,0,0,4335.34,590.84Zm231-24.41a135,135,0,0,0-19-21l4-4.47a141,141,0,0,1,19.83,22Zm-208.16-10.76-4.46-4a141,141,0,0,1,22-19.82l3.53,4.85A134.91,134.91,0,0,0,4358.14,555.67Zm178.52-18.89a134.17,134.17,0,0,0-24.53-14.16l2.43-5.48a140.14,140.14,0,0,1,25.63,14.8Zm-146-7.56-3-5.19a139.6,139.6,0,0,1,27-12.07l1.85,5.71A133.57,133.57,0,0,0,4390.67,529.22Zm108.68-11.5a133.61,133.61,0,0,0-27.72-5.84l0.61-6a139.63,139.63,0,0,1,29,6.11Zm-69.58-3.59-1.25-5.87a141,141,0,0,1,29.35-3.08l0.08,6h-0.13A134.86,134.86,0,0,0,4429.77,514.13Z" transform="translate(-4317.87 -221.37)"/><path class="cls-1" d="M4457.87,1069.18h-0.24v-6h0.28a134.88,134.88,0,0,0,27.91-2.92l1.24,5.87A141,141,0,0,1,4457.87,1069.18Zm-14.53-.75a139.63,139.63,0,0,1-29-6.14l1.86-5.7a133.63,133.63,0,0,0,27.71,5.88Zm57.55-6-1.84-5.71a133.51,133.51,0,0,0,25.89-11.52l3,5.19A139.5,139.5,0,0,1,4500.89,1062.44Zm-99.87-5.29a140.12,140.12,0,0,1-25.61-14.83l3.54-4.85a134.09,134.09,0,0,0,24.51,14.19Zm138.92-14.55-3.52-4.86a135.08,135.08,0,0,0,21.07-19l4.46,4A141,141,0,0,1,4539.94,1042.61Zm-175.65-9.29a140.91,140.91,0,0,1-19.81-22l4.86-3.52a135,135,0,0,0,19,21.06ZM4571,1011.7l-4.84-3.54a134.16,134.16,0,0,0,14.21-24.51l5.48,2.44A140.23,140.23,0,0,1,4571,1011.7Zm-234.29-12.38a139.54,139.54,0,0,1-12.05-27l5.71-1.85a133.65,133.65,0,0,0,11.53,25.88ZM4591,972.74l-5.7-1.87a133.56,133.56,0,0,0,5.89-27.71l6,0.62A139.67,139.67,0,0,1,4591,972.74Zm-270-14.29a140.92,140.92,0,0,1-3.07-29.27V929h6v0.22a134.84,134.84,0,0,0,2.94,28Zm276.93-29h-6v-0.32a134.89,134.89,0,0,0-3-28.18l5.87-1.26a140.93,140.93,0,0,1,3.1,29.43v0.32Zm-273.29-14.16-6-.61a139.68,139.68,0,0,1,6.12-29l5.71,1.86A133.59,133.59,0,0,0,4324.57,915.34Zm260.78-27.57a133.56,133.56,0,0,0-11.57-25.87l5.19-3a139.59,139.59,0,0,1,12.08,27Zm-250-12.93-5.48-2.44a140.08,140.08,0,0,1,14.81-25.62l4.85,3.54A134,134,0,0,0,4335.34,874.84Zm231-24.41a135,135,0,0,0-19-21l4-4.47a141,141,0,0,1,19.83,22Zm-208.16-10.76-4.46-4a141,141,0,0,1,22-19.82l3.53,4.85A134.91,134.91,0,0,0,4358.14,839.67Zm178.52-18.89a134.17,134.17,0,0,0-24.53-14.16l2.43-5.48a140.14,140.14,0,0,1,25.63,14.8Zm-146-7.56-3-5.19a139.58,139.58,0,0,1,27-12.07l1.85,5.71A133.52,133.52,0,0,0,4390.67,813.22Zm108.68-11.5a133.59,133.59,0,0,0-27.72-5.84l0.61-6a139.6,139.6,0,0,1,29,6.11Zm-69.58-3.59-1.25-5.87a141,141,0,0,1,29.35-3.08l0.08,6h-0.08A135,135,0,0,0,4429.77,798.13Z" transform="translate(-4317.87 -221.37)"/></svg>