<svg id="Layer_3" data-name="Layer 3" xmlns="http://www.w3.org/2000/svg" viewBox="0 0 32 32"><defs><style>.cls-1{fill:#a70240;}</style></defs><title>icon-customer-care</title><path class="cls-1" d="M262.2,601.9h-0.3a22.5,22.5,0,0,1-6.6-4,17.8,17.8,0,0,1-4.6.6c-8.8,0-16-6.4-16-14.3s7.2-14.3,16-14.3,16,6.4,16,14.3a13.4,13.4,0,0,1-4.6,10L263,601a0.8,0.8,0,0,1-.3.7Zm-6.7-5.7,0.5,0.2a19.9,19.9,0,0,0,5.2,3.5l-0.7-5.9a0.8,0.8,0,0,1,.3-0.7,12,12,0,0,0,4.4-9.1c0-7-6.5-12.7-14.5-12.7s-14.5,5.7-14.5,12.7,6.5,12.7,14.5,12.7a16.2,16.2,0,0,0,4.6-.7h0.2Z" transform="translate(-234.7 -569.9)"/><path class="cls-1" d="M250.4,591.2l-0.5-.2-4.4-4.2a4.6,4.6,0,0,1-1.3-5,3.6,3.6,0,0,1,3.4-2.4,4,4,0,0,1,2.7,1.4,3.9,3.9,0,0,1,2.7-1.4,3.7,3.7,0,0,1,3.4,2.4,4.6,4.6,0,0,1-1.2,5.1l-4.3,4.2Zm-2.8-10.4a2.1,2.1,0,0,0-2,1.5,3,3,0,0,0,.9,3.4l3.9,3.7,3.8-3.7a3.1,3.1,0,0,0,.8-3.4,2.1,2.1,0,0,0-2-1.4,2.8,2.8,0,0,0-2,1.5,0.8,0.8,0,0,1-.7.4,0.8,0.8,0,0,1-.7-0.4A2.9,2.9,0,0,0,247.6,580.8Z" transform="translate(-234.7 -569.9)"/></svg>