<svg id="Layer_1" data-name="Layer 1" xmlns="http://www.w3.org/2000/svg" viewBox="0 0 35 35"><defs><style>.cls-1{fill:#575858;}</style></defs><title>view-grid</title><polygon class="cls-1" points="0 0 0 1.3 33.7 1.3 33.7 33.7 0 33.7 0 35 35 35 35 0 0 0"/><path class="cls-1" d="M0,3H0.65V32H0V3Z"/><path class="cls-1" d="M13.8,10.55H28a1,1,0,0,0,0-2H13.8A1,1,0,0,0,13.8,10.55Z"/><path class="cls-1" d="M28,16.54H13.8a1,1,0,0,0,0,2H28A1,1,0,0,0,28,16.54Z"/><path class="cls-1" d="M28,24.54H13.8a1,1,0,1,0,0,2H28A1,1,0,0,0,28,24.54Z"/><rect class="cls-1" x="6" y="6.85" width="5.3" height="5.31" rx="0.6" ry="0.6"/><rect class="cls-1" x="6" y="14.85" width="5.3" height="5.31" rx="0.6" ry="0.6"/><rect class="cls-1" x="6" y="22.85" width="5.3" height="5.31" rx="0.6" ry="0.6"/></svg>